<svg width="41" height="41" viewBox="0 0 41 41" fill="none" xmlns="http://www.w3.org/2000/svg">
<path d="M40.566 9.65264C40.2904 9.41609 39.9261 9.31207 39.5675 9.36741L38.8068 9.48432C38.7857 9.48768 38.7669 9.47431 38.7597 9.45237C38.6165 9.0141 38.4374 8.58272 38.2271 8.17C38.2189 8.15382 38.2248 8.13276 38.241 8.12091L38.8625 7.66511C39.1552 7.45026 39.3391 7.11945 39.3667 6.75734C39.3944 6.39531 39.263 6.04032 39.0063 5.78351L36.6693 3.44659C36.4125 3.18978 36.0571 3.05789 35.6953 3.08616C35.3333 3.11387 35.0025 3.29772 34.7877 3.59049L34.332 4.21182C34.3201 4.22791 34.299 4.23392 34.2827 4.22559C33.8705 4.01554 33.439 3.83641 33.0004 3.69307C32.9785 3.68586 32.9653 3.66648 32.9685 3.64606L33.0855 2.88532C33.1406 2.52641 33.0366 2.16238 32.8001 1.88683C32.5637 1.6112 32.2198 1.45312 31.8567 1.45312H28.5518C28.1886 1.45312 27.8447 1.6112 27.6082 1.88691C27.3717 2.16262 27.2678 2.52649 27.323 2.88532L27.4399 3.64606C27.4431 3.66656 27.4299 3.68594 27.4079 3.69315C26.9692 3.83657 26.5378 4.01571 26.1256 4.22567C26.1095 4.234 26.0883 4.22807 26.0765 4.21198L25.6207 3.59049C25.4059 3.29764 25.075 3.11379 24.7128 3.08616C24.3506 3.05813 23.9958 3.18986 23.7391 3.44667L21.4022 5.78351C21.1454 6.04032 21.0139 6.39531 21.0416 6.75742C21.0693 7.11953 21.2532 7.4505 21.546 7.66527L22.1674 8.12099C22.1835 8.13276 22.1895 8.15398 22.1813 8.17016C22.1184 8.29356 22.0586 8.41952 22.0011 8.54653C21.8776 8.53379 21.7522 8.52691 21.6255 8.52691C20.3807 8.52691 19.2824 9.16449 18.6389 10.1299C17.9954 9.16449 16.897 8.52691 15.6523 8.52691C14.1969 8.52691 12.9302 9.38486 12.3701 10.661C11.856 10.3872 11.2794 10.2415 10.6857 10.2415C8.70776 10.2415 7.09859 11.8506 7.09859 13.8286C7.09859 14.1633 7.14567 14.4955 7.23704 14.8151C5.68377 15.2093 4.528 16.6231 4.528 18.2925C4.528 18.9796 4.71947 19.636 5.07726 20.2023C4.02951 20.8436 3.36719 21.9904 3.36719 23.2602C3.36719 24.761 4.30194 26.0643 5.63212 26.5941C5.25303 27.1712 5.04619 27.8507 5.04619 28.5604C5.04619 28.8865 5.09007 29.2098 5.17655 29.5214C5.26528 29.8411 5.59648 30.0283 5.91583 29.9395C6.23543 29.8508 6.42265 29.5198 6.33392 29.2002C6.27643 28.9932 6.24728 28.7779 6.24728 28.5604C6.24728 27.9088 6.51049 27.2955 6.97487 26.8468C7.58626 26.8433 8.18869 26.6839 8.71841 26.3843C9.00709 26.221 9.10879 25.8546 8.94551 25.5659C8.78215 25.2772 8.42684 25.1971 8.12703 25.3389C7.41834 25.674 6.822 25.6421 6.79405 25.6402C5.54603 25.5577 4.56836 24.5123 4.56836 23.2603C4.56836 22.2267 5.22804 21.3157 6.20988 20.9934C6.21228 20.9926 6.21445 20.9914 6.21685 20.9906C6.45396 20.9136 6.70204 20.8743 6.95437 20.8743C7.43259 20.8743 7.89368 21.0151 8.28799 21.2814C8.39105 21.3511 8.50796 21.3844 8.6236 21.3844C8.81634 21.3844 9.00573 21.2918 9.12184 21.1199C9.30746 20.8451 9.23523 20.4718 8.96032 20.2861C8.36671 19.885 7.67307 19.6731 6.95429 19.6731C6.70781 19.6731 6.46373 19.6984 6.22486 19.7478C5.9035 19.3325 5.72901 18.8266 5.72901 18.2926C5.72901 16.9877 6.79061 15.9176 8.09548 15.9071C8.30865 15.9055 8.505 15.7909 8.61126 15.6061C8.71753 15.4212 8.71793 15.194 8.61231 15.0088C8.40771 14.6505 8.2996 14.2423 8.2996 13.8286C8.2996 12.513 9.36992 11.4426 10.6855 11.4426C11.2848 11.4426 11.8579 11.6659 12.299 12.0713C12.2999 12.0721 12.3009 12.0728 12.3017 12.0736C12.7909 12.5243 13.0715 13.1638 13.0715 13.8286C13.0715 14.1603 13.3404 14.4292 13.6721 14.4292C14.0039 14.4292 14.2727 14.1603 14.2727 13.8286C14.2727 12.9471 13.9445 12.0955 13.3627 11.4419C13.6551 10.4335 14.5758 9.72816 15.6521 9.72816C16.9678 9.72816 18.0381 10.7985 18.0381 12.1142V32.7736C18.0381 34.0893 16.9678 35.1596 15.6521 35.1596C14.9773 35.1596 14.3309 34.8716 13.8786 34.3693C13.7028 34.174 13.4204 34.1157 13.1819 34.2253C12.8685 34.3691 12.5344 34.442 12.1888 34.442C10.8731 34.442 9.80275 33.3716 9.80275 32.056C9.80275 31.9031 9.8178 31.7484 9.84751 31.5962C9.88603 31.3983 9.82285 31.1943 9.67903 31.053C9.53537 30.9116 9.33021 30.8519 9.13313 30.8938C8.69334 30.9872 8.2361 30.955 7.82129 30.805C7.50939 30.6923 7.16513 30.8534 7.05222 31.1654C6.93939 31.4773 7.10067 31.8216 7.41265 31.9345C7.79407 32.0725 8.19438 32.1442 8.60278 32.1476C8.65154 34.0833 10.2415 35.6432 12.1888 35.6432C12.566 35.6432 12.9343 35.5854 13.2881 35.471C13.9388 36.0406 14.7796 36.3608 15.6521 36.3608C16.8969 36.3608 17.9952 35.7232 18.6387 34.7578C19.2822 35.7232 20.3806 36.3608 21.6253 36.3608C22.4979 36.3608 23.3388 36.0406 23.9894 35.471C24.3433 35.5854 24.7116 35.6432 25.0888 35.6432C27.036 35.6432 28.626 34.0834 28.6748 32.1476C30.6386 32.131 32.2313 30.5282 32.2313 28.5605C32.2313 27.8509 32.0244 27.1712 31.6454 26.5942C32.9756 26.0644 33.9103 24.7611 33.9103 23.2603C33.9103 21.9904 33.248 20.8436 32.2004 20.2024C32.5581 19.6362 32.7495 18.9797 32.7495 18.2926C32.7495 17.5403 32.5143 16.8405 32.1144 16.2619C33.6362 15.5348 34.6483 13.9757 34.6483 12.2488C34.6483 9.79823 32.6546 7.8046 30.2041 7.8046C28.5213 7.8046 26.978 8.76378 26.2282 10.2613C25.7638 10.3084 25.3158 10.4436 24.9075 10.661C24.5603 9.8699 23.9413 9.23968 23.1744 8.87477C23.2 8.82159 23.2246 8.76778 23.2513 8.71541C23.5284 8.1716 23.3712 7.51424 22.8777 7.15229L22.2563 6.69656C22.2519 6.69344 22.2406 6.68511 22.2391 6.66581C22.2376 6.64659 22.2475 6.63666 22.2514 6.63282L24.5883 4.2959C24.5921 4.29221 24.6023 4.28221 24.6212 4.28373C24.6405 4.28525 24.6488 4.29654 24.652 4.30078L25.1077 4.92219C25.4696 5.41579 26.127 5.57266 26.6709 5.29583C27.0277 5.11398 27.4012 4.95887 27.7809 4.83474C28.3641 4.64416 28.7199 4.06744 28.627 3.46341L28.51 2.70266C28.5092 2.69746 28.5071 2.68361 28.5196 2.66887C28.5322 2.65422 28.5462 2.65422 28.5515 2.65422H31.8564C31.8617 2.65422 31.8757 2.65422 31.8883 2.66887C31.9009 2.68361 31.8988 2.69754 31.898 2.70266L31.781 3.46341C31.6881 4.06744 32.044 4.64416 32.627 4.83474C33.0067 4.95879 33.3801 5.11398 33.7371 5.29583C34.2808 5.57274 34.9382 5.41579 35.3003 4.92219L35.756 4.3007C35.7591 4.29646 35.7674 4.28517 35.7867 4.28373C35.8054 4.28204 35.816 4.29221 35.8196 4.2959L38.1566 6.63274C38.1603 6.6365 38.1703 6.64643 38.1687 6.66573C38.1672 6.68511 38.1559 6.69344 38.1517 6.69648L37.5304 7.1522C37.0366 7.51416 36.8795 8.1716 37.1566 8.71533C37.3386 9.07264 37.4938 9.44612 37.6177 9.82545C37.8082 10.4085 38.3851 10.7647 38.9891 10.6715L39.7497 10.5546C39.7549 10.5537 39.7688 10.5515 39.7835 10.5642C39.7983 10.5768 39.7983 10.5908 39.7983 10.5961V13.9009C39.7983 13.9062 39.7983 13.9203 39.7835 13.9329C39.7689 13.9456 39.7552 13.9434 39.7497 13.9426L38.9891 13.8256C38.3853 13.7327 37.8083 14.0885 37.6177 14.6717C37.4938 15.0509 37.3387 15.4244 37.1567 15.7817C36.8795 16.3255 37.0366 16.9829 37.5303 17.3449L38.1516 17.8006C38.1559 17.8037 38.1672 17.812 38.1687 17.8314C38.1703 17.8507 38.1603 17.8607 38.1566 17.8644L35.8197 20.2013C35.816 20.2049 35.8056 20.215 35.7867 20.2135C35.7674 20.212 35.7591 20.2008 35.756 20.1965L35.3002 19.575C35.1266 19.3383 34.874 19.1701 34.5889 19.1013C34.2665 19.0235 33.9421 19.2219 33.8642 19.5443C33.7864 19.8668 33.9847 20.1912 34.3072 20.269C34.3171 20.2714 34.3255 20.2769 34.3316 20.2854L34.7874 20.9068C35.0021 21.1997 35.3329 21.3835 35.695 21.4112C35.7268 21.4136 35.7586 21.4148 35.7903 21.4148C36.1187 21.4148 36.4347 21.2849 36.669 21.0506L39.006 18.7137C39.2627 18.4569 39.3941 18.102 39.3664 17.7399C39.3388 17.3779 39.1549 17.0469 38.8621 16.8321L38.2407 16.3764C38.2245 16.3646 38.2186 16.3435 38.2269 16.3271C38.4371 15.9144 38.6163 15.483 38.7594 15.0449C38.7666 15.0228 38.7862 15.0099 38.8065 15.0129L39.5671 15.1299C39.926 15.1849 40.29 15.0811 40.5656 14.8447C40.8413 14.6082 40.9997 14.2642 40.9997 13.901V10.5962C40.9997 10.2331 40.8415 9.88912 40.566 9.65264ZM30.2041 9.00561C31.9923 9.00561 33.4471 10.4604 33.4471 12.2486C33.4471 13.6577 32.5241 14.9133 31.1903 15.3386C30.8453 15.1007 30.4575 14.9208 30.0406 14.815C30.132 14.4954 30.179 14.1631 30.179 13.8285C30.179 12.1858 29.0686 10.7983 27.5592 10.3749C28.1607 9.52876 29.1438 9.00561 30.2041 9.00561ZM23.9148 11.4417C23.3329 12.0953 23.0047 12.9469 23.0047 13.8284C23.0047 14.1601 23.2736 14.429 23.6053 14.429C23.9371 14.429 24.2059 14.1601 24.2059 13.8284C24.2059 13.1637 24.4863 12.5246 24.9752 12.0737C24.9762 12.0728 24.9773 12.0721 24.9784 12.0712C25.4197 11.6657 25.9926 11.4425 26.5918 11.4425C27.9075 11.4425 28.9779 12.5128 28.9779 13.8284C28.9779 14.2422 28.8697 14.6503 28.6651 15.0087C28.5595 15.1938 28.5599 15.4211 28.6662 15.6059C28.7725 15.7907 28.9688 15.9053 29.182 15.907C30.4868 15.9174 31.5484 16.9876 31.5484 18.2924C31.5484 18.8265 31.374 19.3324 31.0526 19.7476C30.8137 19.6982 30.5697 19.6729 30.3232 19.6729C29.6043 19.6729 28.9107 19.8849 28.3171 20.2859C28.0422 20.4716 27.97 20.8449 28.1556 21.1198C28.2716 21.2915 28.461 21.3842 28.6539 21.3842C28.7695 21.3842 28.8865 21.3508 28.9895 21.2811C29.3838 21.0148 29.8449 20.874 30.3231 20.874C30.5755 20.874 30.8236 20.9133 31.0607 20.9903C31.0631 20.9911 31.0653 20.9923 31.0676 20.9931C32.0494 21.3154 32.709 22.2264 32.709 23.2601C32.709 24.512 31.7313 25.5574 30.4832 25.64C30.4553 25.6418 30.428 25.6462 30.4011 25.6518C30.3755 25.6484 30.3495 25.6461 30.323 25.6461C29.9114 25.6461 29.5059 25.5397 29.1503 25.3387C28.8615 25.1752 28.4951 25.277 28.3318 25.5657C28.1685 25.8544 28.2701 26.2208 28.5589 26.3841C29.0885 26.6837 29.691 26.843 30.3023 26.8465C30.7666 27.2952 31.0299 27.9085 31.0299 28.5602C31.0299 29.8758 29.9596 30.9461 28.6439 30.9461C28.4769 30.9461 28.3087 30.9284 28.1442 30.8934C27.9471 30.8513 27.7419 30.9112 27.5983 31.0526C27.4544 31.1939 27.3913 31.3979 27.4298 31.5958C27.4595 31.748 27.4746 31.9028 27.4746 32.0556C27.4746 33.3713 26.4042 34.4416 25.0885 34.4416C24.7429 34.4416 24.4088 34.3687 24.0954 34.2249C24.0323 34.1959 23.8124 34.0733 23.7549 34.0345C23.096 33.5893 22.7025 32.8496 22.7025 32.0556C22.7025 31.7239 22.4337 31.455 22.1019 31.455C21.7702 31.455 21.5014 31.7239 21.5014 32.0556C21.5014 33.1405 21.991 34.1569 22.8236 34.8355C22.4628 35.0451 22.0496 35.1593 21.625 35.1593C20.3093 35.1593 19.239 34.089 19.239 32.7733V12.1139C19.239 10.7982 20.3093 9.72792 21.625 9.72792C22.7016 9.72792 23.6223 10.4333 23.9148 11.4417Z" fill="black"/>
<path d="M2.11132 16.6015C2.31079 13.2243 3.44054 10.5476 5.47748 8.63422C7.91306 6.34639 11.0089 5.74204 13.1771 5.63786C13.5084 5.62192 13.764 5.34045 13.7481 5.00916C13.7323 4.67788 13.4536 4.42315 13.1193 4.43813C9.7209 4.60141 6.79397 5.74965 4.65508 7.75873C2.36445 9.91035 1.10642 12.8925 0.906705 16.6333C0.67624 16.4964 0.374185 16.5264 0.175912 16.7247C-0.0586372 16.9592 -0.0586372 17.3394 0.175912 17.574L1.05373 18.4518C1.16632 18.5645 1.31911 18.6277 1.47838 18.6277C1.63766 18.6277 1.79045 18.5645 1.90304 18.4518L2.78085 17.574C3.0154 17.3394 3.0154 16.9591 2.78085 16.7247C2.5998 16.5435 2.33202 16.5029 2.11132 16.6015Z" fill="black"/>
<path d="M36.7576 25.5353C36.645 25.4226 36.4923 25.3594 36.3329 25.3594C36.1736 25.3594 36.021 25.4226 35.9082 25.5353L35.0304 26.4131C34.7958 26.6477 34.7958 27.028 35.0305 27.2624C35.2115 27.4436 35.4792 27.4842 35.7 27.3856C35.5004 30.7628 34.3708 33.4395 32.3338 35.3529C29.8983 37.6406 26.8024 38.2451 24.6342 38.3492C24.303 38.3652 24.0473 38.6467 24.0632 38.9779C24.0786 39.2995 24.3442 39.5497 24.6626 39.5497C24.6723 39.5497 24.6821 39.5495 24.6919 39.549C28.0903 39.3857 31.0173 38.2375 33.1562 36.2284C35.4468 34.0767 36.7047 31.0945 36.9045 27.3537C36.9987 27.4097 37.1046 27.4384 37.2108 27.4384C37.3644 27.4384 37.5182 27.3797 37.6355 27.2624C37.87 27.0279 37.87 26.6476 37.6354 26.4131L36.7576 25.5353Z" fill="black"/>
<path d="M14.2586 16.5312C12.7483 16.5312 11.5195 17.76 11.5195 19.2704C11.5195 19.6021 11.7884 19.871 12.1201 19.871C12.4519 19.871 12.7207 19.6021 12.7207 19.2704C12.7207 18.4224 13.4106 17.7324 14.2586 17.7324C14.5904 17.7324 14.8592 17.4635 14.8592 17.1318C14.8592 16.8002 14.5904 16.5312 14.2586 16.5312Z" fill="black"/>
<path d="M12.1055 26.1454C12.1055 26.4771 12.3743 26.746 12.7061 26.746C13.0378 26.746 13.3066 26.4771 13.3066 26.1454C13.3066 25.2974 13.9965 24.6074 14.8445 24.6074C15.1763 24.6074 15.4451 24.3385 15.4451 24.0068C15.4451 23.6752 15.1763 23.4062 14.8445 23.4062C13.3342 23.4062 12.1055 24.635 12.1055 26.1454Z" fill="black"/>
<path d="M22.0889 24.6074C22.9369 24.6074 23.6268 25.2974 23.6268 26.1454C23.6268 26.4771 23.8956 26.746 24.2274 26.746C24.5591 26.746 24.8279 26.4771 24.8279 26.1454C24.8279 24.635 23.5991 23.4062 22.0889 23.4062C21.7571 23.4062 21.4883 23.6752 21.4883 24.0068C21.4883 24.3385 21.7572 24.6074 22.0889 24.6074Z" fill="black"/>
<path d="M22.9248 17.7324C23.7728 17.7324 24.4627 18.4224 24.4627 19.2704C24.4627 19.6021 24.7315 19.871 25.0633 19.871C25.3951 19.871 25.6639 19.6021 25.6639 19.2704C25.6639 17.76 24.4351 16.5312 22.9248 16.5312C22.593 16.5312 22.3242 16.8002 22.3242 17.1318C22.3242 17.4635 22.593 17.7324 22.9248 17.7324Z" fill="black"/>
</svg>
