<svg width="44" height="44" viewBox="0 0 44 44" fill="none" xmlns="http://www.w3.org/2000/svg">
<path d="M21.9951 6.10352C23.5355 6.1036 25.0124 6.71549 26.1016 7.80469C27.1908 8.89388 27.8026 10.3708 27.8027 11.9111V22.9111C27.8027 24.4516 27.1908 25.9293 26.1016 27.0186C25.0124 28.1076 23.5354 28.7196 21.9951 28.7197C20.4547 28.7197 18.977 28.1078 17.8877 27.0186C16.7984 25.9293 16.1865 24.4516 16.1865 22.9111V11.9111C16.1866 10.3709 16.7986 8.89387 17.8877 7.80469C18.977 6.71541 20.4547 6.10352 21.9951 6.10352ZM21.9951 8.55273C21.1044 8.55273 20.2499 8.9073 19.6201 9.53711C18.9905 10.1668 18.6368 11.0206 18.6367 11.9111V22.9111C18.6367 23.8018 18.9903 24.6563 19.6201 25.2861C20.2499 25.9159 21.1044 26.2695 21.9951 26.2695C22.8856 26.2694 23.7394 25.9158 24.3691 25.2861C24.999 24.6563 25.3535 23.8018 25.3535 22.9111V11.9111C25.3534 11.0206 24.9989 10.1668 24.3691 9.53711C23.7394 8.90738 22.8857 8.55282 21.9951 8.55273ZM20.7695 33.2314L20.6396 33.2148C18.14 32.886 15.8451 31.6591 14.1826 29.7637C12.5201 27.8681 11.6035 25.4324 11.6035 22.9111C11.6036 22.5864 11.7323 22.2746 11.9619 22.0449C12.1916 21.8153 12.5033 21.6865 12.8281 21.6865C13.1529 21.6865 13.4646 21.8153 13.6943 22.0449C13.924 22.2746 14.0526 22.5864 14.0527 22.9111C14.0527 25.0174 14.8896 27.038 16.3789 28.5273C17.8683 30.0167 19.8889 30.8535 21.9951 30.8535C24.1012 30.8534 26.1211 30.0165 27.6104 28.5273C29.0997 27.038 29.9365 25.0174 29.9365 22.9111C29.9366 22.5864 30.0653 22.2746 30.2949 22.0449C30.5246 21.8153 30.8364 21.6866 31.1611 21.6865C31.4859 21.6865 31.7976 21.8154 32.0273 22.0449C32.257 22.2746 32.3866 22.5864 32.3867 22.9111C32.3868 25.4324 31.47 27.8681 29.8076 29.7637C28.1452 31.6592 25.8502 32.8859 23.3506 33.2148L23.2197 33.2314V35.4365H27.4951C27.8199 35.4366 28.1317 35.5653 28.3613 35.7949C28.591 36.0246 28.7196 36.3364 28.7197 36.6611C28.7197 36.9859 28.5909 37.2976 28.3613 37.5273C28.1317 37.757 27.8199 37.8866 27.4951 37.8867H16.4951C16.1702 37.8867 15.8586 37.7571 15.6289 37.5273C15.3992 37.2976 15.2695 36.986 15.2695 36.6611C15.2696 36.3364 15.3993 36.0246 15.6289 35.7949C15.8586 35.5654 16.1704 35.4365 16.4951 35.4365H20.7695V33.2314Z" fill="white" stroke="#EDF7F4" stroke-width="0.3"/>
</svg>
